<svg width="59" height="57" viewBox="0 0 59 57" fill="none" xmlns="http://www.w3.org/2000/svg">
<path d="M58.7429 17.3548L41.4682 15.913L34.7131 0L27.9581 15.913L10.6834 17.3548L23.7663 28.7556L19.8681 45.6565L34.7131 36.6854L49.5582 45.6565L45.6333 28.7556L58.7429 17.3548ZM40.4269 29.9838L41.4949 34.5494L37.4632 32.1198L34.7131 30.4644L31.9631 32.1198L27.9314 34.5494L28.9727 29.9838L29.7203 26.8332L27.2906 24.7239L23.7129 21.6268L28.412 21.2263L31.616 20.9593L32.8709 17.9956L34.7131 13.6703L36.5554 17.9956L37.8103 20.9593L41.0143 21.2263L45.6867 21.6268L42.1357 24.7239L39.6793 26.8332L40.4269 29.9838ZM0.430706 29.3697C-0.367616 28.0347 -0.0258591 26.406 1.205 25.605L8.49402 20.7991L12.6859 24.4302L4.14197 30.0639C3.68807 30.3576 3.18078 30.5178 2.67348 30.5178C1.81909 30.5178 0.9647 30.0906 0.430706 29.3697ZM1.205 51.1567L16.851 40.8773L16.0233 44.7487L15.1155 48.4066L4.14197 55.6422C3.68807 55.9359 3.18078 56.0694 2.67348 56.0694C1.81909 56.0694 0.9647 55.6422 0.430706 54.8679C0.0475211 54.2713 -0.086041 53.548 0.0587779 52.8539C0.203597 52.1598 0.615213 51.5503 1.205 51.1567ZM16.8777 28.0347L19.3341 30.1974L18.6132 33.3746L4.14197 42.853C3.68807 43.1467 3.18078 43.2802 2.67348 43.2802C1.81909 43.2802 0.9647 42.8797 0.430706 42.0788C0.0468195 41.4869 -0.087225 40.7671 0.0578552 40.0768C0.202935 39.3864 0.615348 38.7815 1.205 38.3942L16.8777 28.0347Z" fill="white"/>
</svg>
